# AST/ASF file generated using VICON BodyLanguage
# -----------------------------------------------
:version 1.10
:name VICON
:units
  mass 1.0
  length 0.45
  angle deg
:documentation
   .ast/.asf automatically generated from VICON data using
   VICON BodyBuilder and BodyLanguage model FoxedUp or BRILLIANT.MOD
:root
   order TX TY TZ RX RY RZ
   axis XYZ
   position 0 0 0  
   orientation 0 0 0 
:bonedata
  begin
     id 1 
     name lhipjoint
     direction 0.611823 -0.767273 0.19226 
     length 2.47422 
     axis 0 0 0  XYZ
  end
  begin
     id 2 
     name lfemur
     direction 0.34202 -0.939693 0  
     length 7.40835  
     axis 0 0 20  XYZ
    dof rx ry rz
    limits (-160.0 20.0)
           (-70.0 70.0)
           (-60.0 70.0)
  end
  begin
     id 3 
     name ltibia
     direction 0.34202 -0.939693 0   
     length 8.03679   
     axis 0 0 20   XYZ
    dof rx
    limits (-10.0 170.0)
  end
  begin
     id 4 
     name lfoot
     direction 0.0883598 -0.242766 0.966052   
     length 2.06694   
     axis -90 7.62852e-016 20   XYZ
    dof rx rz
    limits (-45.0 90.0)
           (-70.0 20.0)
  end
  begin
     id 5 
     name ltoes
     direction 1.53617e-011 -4.21699e-011 1   
     length 1.03711   
     axis -90 7.62852e-016 20   XYZ
    dof rx
    limits (-90.0 20.0)
  end
  begin
     id 6 
     name rhipjoint
     direction -0.590066 -0.783143 0.196236   
     length 2.42408  
     axis 0 0 0  XYZ 
  end
  begin
     id 7 
     name rfemur
     direction -0.34202 -0.939693 0   
     length 7.88987   
     axis 0 0 -20   XYZ
    dof rx ry rz
    limits (-160.0 20.0)
           (-70.0 70.0)
           (-70.0 60.0)
  end
  begin
     id 8 
     name rtibia
     direction -0.34202 -0.939693 0   
     length 7.87584   
     axis 0 0 -20   XYZ
    dof rx
    limits (-10.0 170.0)
 end
 begin
     id 9 
     name rfoot
     direction -0.130476 -0.358481 0.924374   
     length 2.21745  
     axis -90 -7.62852e-016 -20   XYZ
    dof rx rz
    limits (-45.0 90.0)
           (-20.0 70.0)
  end
  begin
     id 10 
     name rtoes
     direction 8.20695e-005 8.89091e-005 1   
     length 1.09536   
     axis -90 -7.62852e-016 -20   XYZ
    dof rx
    limits (-90.0 20.0)
  end
  begin
     id 11 
     name lowerback
     direction 0.00981224 0.999875 -0.0124197   
     length 1.94808   
     axis 0 0 0   XYZ
    dof rx ry rz
    limits (-20.0 45.0)
           (-30.0 30.0)
           (-30.0 30.0)
  end
  begin
     id 12 
     name upperback
     direction 0.038911 0.999194 0.00981686   
     length 1.94415   
     axis 0 0 0   XYZ
    dof rx ry rz
    limits (-20.0 45.0)
           (-30.0 30.0)
           (-30.0 30.0)
  end
  begin
     id 13 
     name thorax
     direction 0.0330692 0.999334 0.0154389   
     length 1.94117   
     axis 0 0 0   XYZ
    dof rx ry rz
    limits (-20.0 45.0)
           (-30.0 30.0)
           (-30.0 30.0)
  end
  begin
     id 14 
     name lowerneck
     direction -0.0374305 0.99415 0.10132   
     length 1.87291   
     axis 0 0 0   XYZ
    dof rx ry rz
    limits (-20.0 45.0)
           (-30.0 30.0)
           (-30.0 30.0)
  end
  begin
     id 15 
     name upperneck
     direction 0.0120692 0.985979 -0.166431   
     length 1.89248   
     axis 0 0 0   XYZ
    dof rx ry rz
    limits (-20.0 45.0)
           (-30.0 30.0)
           (-30.0 30.0)
  end
  begin
     id 16
     name head
     direction 0.00629908 0.997708 -0.06737  
     length 1.90559  
     axis 0 0 0   XYZ
    dof rx ry rz
    limits (-20.0 45.0)
           (-30.0 30.0)
           (-30.0 30.0)
  end
  begin
     id 17 
     name lclavicle
     direction 0.961536 0.27308 -0.0295863  
     length 3.52757  
     axis 0 0 0   XYZ
    dof ry rz
    limits (-20.0 10.0)
           (0.0 20.0)
  end
  begin
     id 18 
     name lhumerus
     direction 1 -4.48969e-011 2.61153e-029   
     length 5.14845   
     axis 180 -30 -90   XYZ
    dof rx ry rz
    limits (-60.0 90.0)
           (-90.0 90.0)
           (-90.0 90.0)
  end
  begin
     id 19
     name lradius
     direction 1 -4.4896e-011 -3.37549e-027   
     length 3.43674   
     axis 180 -30 -90   XYZ
    dof rx
    limits (-10.0 170.0)
  end
  begin
     id 20
     name lwrist
     direction 1 -4.48969e-011 2.56952e-028   
     length 1.71837   
     axis -5.12785e-016 90 90   XYZ
    dof ry
    limits (-180.0 0.0)
 end
  begin
     id 21 
     name lhand
     direction 1 -4.49094e-011 5.13905e-028   
     length 0.588709   
     axis -3.27915e-016 90 90   XYZ
    dof rx rz
    limits (-90.0 90.0)
           (-45.0 45.0)
  end
  begin
     id 22 
     name lfingers
     direction 1 -4.48821e-011 1.02781e-027   
     length 0.474633   
     axis -6.5583e-016 90 90   XYZ
    dof rx
    limits (0.0 90.0)
  end
  begin
     id 23
     name lthumb
     direction 0.707107 -6.34922e-011 0.707107   
     length 0.68148   
     axis -90 45 2.85299e-015   XYZ
    dof rx rz
    limits (-45.0 45.0)
           (-45.0 45.0)
  end
  begin
     id 24 
     name rclavicle
     direction -0.940964 0.333844 -0.0559866   
     length 3.55948  
     axis 0 0 0   XYZ 
    dof ry rz
    limits (-10.0 20.0)
           (-20.0 0.0)
  end
  begin
     id 25 
     name rhumerus
     direction -1 -4.48973e-011 3.15259e-027  
     length 5.42185   
     axis 180 30 90   XYZ
    dof rx ry rz
    limits (-90.0 60.0)
           (-90.0 90.0)
           (-90.0 90.0)
  end
  begin
     id 26 
     name rradius
     direction -1 -4.48954e-011 -2.56271e-027   
     length 3.51317   
     axis 180 30 90   XYZ
    dof rx
    limits (-10.0 170.0)
  end
  begin
     id 27 
     name rwrist
     direction -1 -4.48943e-011 2.56952e-028   
     length 1.75658   
     axis -5.12785e-016 -90 -90   XYZ
    dof ry
    limits (-180.0 0.0)
  end
  begin
     id 28
     name rhand
     direction -1 -4.4912e-011 5.13905e-028   
     length 0.663187   
     axis -3.27915e-016 -90 -90   XYZ
    dof rx rz
    limits (-90.0 90.0)
           (-45.0 45.0)
  end
  begin
     id 29
     name rfingers
     direction -1 -4.48914e-011 1.02781e-027   
     length 0.534679   
     axis -6.5583e-016 -90 -90   XYZ
    dof rx
    limits (0.0 90.0)
  end
  begin
     id 30
     name rthumb
     direction -0.707107 -6.35033e-011 0.707107   
     length 0.767695   
     axis -90 -45 -2.85299e-015   XYZ
    dof rx rz
    limits (-45.0 45.0)
           (-45.0 45.0)
  end
:hierarchy
  begin
    root lhipjoint rhipjoint lowerback
    lhipjoint lfemur
    lfemur ltibia
    ltibia lfoot
    lfoot ltoes
    rhipjoint rfemur
    rfemur rtibia
    rtibia rfoot
    rfoot rtoes
    lowerback upperback
    upperback thorax
    thorax lowerneck lclavicle rclavicle
    lowerneck upperneck
    upperneck head
    lclavicle lhumerus
    lhumerus lradius
    lradius lwrist
    lwrist lhand lthumb
    lhand lfingers
    rclavicle rhumerus
    rhumerus rradius
    rradius rwrist
    rwrist rhand rthumb
    rhand rfingers
  end

#!OML:ASF F:\VICON\USERDATA\INSTALL\Justin_a\Justin_a.ASF
:FULLY-SPECIFIED
:DEGREES
2341
root -15.9229 18.1569 -6.19607 10.0062 12.5667 -0.093832
lowerback 3.34769 5.70366 0.477058
upperback 3.07881 7.63009 -2.05368
thorax 1.64638 3.85281 -2.49119
lowerneck -3.97859 18.3794 -0.69703
upperneck 32.8427 31.4842 -10.7121
head 13.8599 12.9666 0.298696
rclavicle -9.68578e-014 -1.2101e-014
rhumerus -30.717 -3.58282 -79.7107
rradius 50.2354
rwrist -22.8678
rhand -27.4096 9.77689
rfingers 7.12502
rthumb -0.815663 -20.2013
lclavicle -9.68578e-014 -1.2101e-014
lhumerus -42.9061 19.4844 71.9745
lradius 34.3316
lwrist 6.62641
lhand -17.3668 26.1432
lfingers 7.12502
lthumb 8.88137 55.9363
rfemur -26.4049 -1.49075 27.7546
rtibia 39.6657
rfoot -16.1599 -8.29462
rtoes -14.2288
lfemur -32.3298 -11.0767 -12.2993
ltibia 60.3406
lfoot -10.4636 -11.6685
ltoes -21.0534
2342
root -15.9149 18.1559 -6.29805 9.94051 12.6629 -0.302443
lowerback 3.32299 5.68809 0.771745
upperback 3.01816 7.61525 -2.04748
thorax 1.63461 3.8507 -2.64501
lowerneck -3.96122 18.3276 -0.60891
upperneck 32.8758 31.4072 -10.7074
head 13.8785 12.9393 0.278883
rclavicle -3.71852e-014 -2.5842e-015
rhumerus -30.5841 -3.60236 -79.5899
rradius 50.3768
rwrist -22.9432
rhand -27.5076 9.65754
rfingers 7.12502
rthumb -0.910334 -20.3203
lclavicle -3.71852e-014 -2.5842e-015
lhumerus -43.257 20.0077 71.4291
lradius 33.695
lwrist 6.13476
lhand -16.8132 26.3131
lfingers 7.12502
lthumb 9.41555 56.0828
rfemur -26.6318 -1.52844 27.8763
rtibia 39.4311
rfoot -16.3837 -8.11287
rtoes -12.3591
lfemur -31.5002 -11.0891 -12.0213
ltibia 60.731
lfoot -10.1766 -12.3991
ltoes -20.9039
2343
root -15.9079 18.155 -6.39907 9.84945 12.6505 -0.359463
lowerback 3.2825 5.70301 0.847428
upperback 3.01066 7.63697 -2.03892
thorax 1.65934 3.86308 -2.67329
lowerneck -3.90061 18.2833 -0.373669
upperneck 32.9285 31.4113 -10.8968
head 13.9788 12.94 0.193936
rclavicle -7.237e-014 1.5207e-014
rhumerus -30.3947 -3.67809 -79.4344
rradius 50.4239
rwrist -22.9553
rhand -27.6121 10.0211
rfingers 7.12502
rthumb -1.01131 -19.9563
lclavicle -7.237e-014 1.5207e-014
lhumerus -43.6164 20.2428 71.0943
lradius 33.2635
lwrist 5.79512
lhand -16.4804 26.5506
lfingers 7.12502
lthumb 9.7367 56.3055
rfemur -26.7717 -1.54056 27.8448
rtibia 39.1332
rfoot -16.4265 -8.06918
rtoes -11.2552
lfemur -30.5076 -11.0114 -11.941
ltibia 60.9978
lfoot -9.84364 -13.3347
ltoes -20.4877
2344
root -15.8978 18.1423 -6.50369 9.74021 12.619 -0.448417
lowerback 3.20104 5.70739 0.886456
upperback 3.03579 7.64364 -1.97263
thorax 1.7268 3.86684 -2.61642
lowerneck -3.79011 18.2693 -0.219126
upperneck 32.931 31.4258 -11.0383
head 14.0214 12.9529 0.124166
rclavicle -3.78561e-014 8.34896e-015
rhumerus -30.2961 -3.72506 -79.2246
rradius 50.6436
rwrist -23.0178
rhand -27.7104 10.112
rfingers 7.12502
rthumb -1.10625 -19.8649
lclavicle -3.78561e-014 8.34896e-015
lhumerus -44.0142 20.4881 70.8716
lradius 32.8994
lwrist 5.86906
lhand -16.5245 27.0771
lfingers 7.12502
lthumb 9.69412 56.834
rfemur -27.001 -1.45527 27.7798
rtibia 38.9254
rfoot -16.124 -8.05092
rtoes -10.5104
lfemur -29.4391 -10.8553 -11.8595
ltibia 61.1473
lfoot -9.41126 -14.3769
ltoes -20.526
2345
root -15.8822 18.124 -6.60578 9.72147 12.5994 -0.369452
lowerback 3.04031 5.69586 0.833049
upperback 3.03301 7.628 -1.96058
thorax 1.80367 3.85812 -2.55763
lowerneck -3.64801 18.2463 -0.294207
upperneck 32.826 31.3455 -11.0214
head 13.9192 12.9356 0.100263
rclavicle 2.34566e-014 -5.15349e-014
rhumerus -30.2697 -3.73302 -78.9764
rradius 50.9704
rwrist -23.2865
rhand -27.5344 10.031
rfingers 7.12502
rthumb -0.93618 -19.9467
lclavicle 2.34566e-014 -5.15349e-014
lhumerus -44.4635 21.0215 70.4035
lradius 32.3083
lwrist 5.47774
lhand -16.267 26.9289
lfingers 7.12502
lthumb 9.94256 56.6741
rfemur -27.3786 -1.27893 27.407
rtibia 38.6429
rfoot -16.082 -7.7824
rtoes -8.07263
lfemur -28.4239 -10.7788 -12.0173
ltibia 61.1779
lfoot -9.04823 -15.262
ltoes -21.6538
2346
root -15.8646 18.1288 -6.70594 9.62234 12.6787 -0.187965
lowerback 3.02045 5.63436 0.751822
upperback 3.07509 7.54603 -1.98399
thorax 1.84639 3.81657 -2.53239
lowerneck -3.68166 18.201 -0.330731
upperneck 32.8249 31.2911 -11.0372
head 13.9179 12.904 0.0934712
rclavicle 8.3092e-014 -2.60159e-014
rhumerus -30.1003 -3.71672 -78.7609
rradius 51.15
rwrist -23.3999
rhand -27.6149 10.295
rfingers 7.12502
rthumb -1.01398 -19.6824
lclavicle 8.3092e-014 -2.60159e-014
lhumerus -44.7858 21.7696 69.8545
lradius 31.5942
lwrist 4.7772
lhand -16.3822 26.7144
lfingers 7.12502
lthumb 9.83138 56.4649
rfemur -27.3386 -1.7735 27.1745
rtibia 38.4445
rfoot -15.937 -7.48006
rtoes -8.27749
lfemur -27.2736 -10.8778 -12.2893
ltibia 61.0075
lfoot -8.45016 -16.2989
ltoes -21.8197
2347
root -15.8497 18.1212 -6.80907 9.46931 12.7604 -0.325689
lowerback 3.02535 5.5836 0.923312
upperback 3.07681 7.48032 -1.89175
thorax 1.85149 3.78597 -2.53175
lowerneck -3.78632 18.1621 -0.337885
upperneck 33.0465 31.306 -11.0046
head 14.0362 12.8844 0.129498
rclavicle 3.0265e-014 1.963e-015
rhumerus -29.9577 -3.68278 -78.5405
rradius 51.2319
rwrist -23.4018
rhand -27.9158 10.5648
rfingers 7.12502
rthumb -1.30457 -19.411
lclavicle 3.0265e-014 1.963e-015
lhumerus -45.086 21.9536 69.7324
lradius 31.1739
lwrist 4.53356
lhand -16.2732 27.1084
lfingers 7.12502
lthumb 9.93659 56.8539
rfemur -27.4727 -1.80091 27.1442
rtibia 38.1966
rfoot -16.1835 -7.27982
rtoes -8.04131
lfemur -26.1269 -10.8142 -12.171
ltibia 60.7771
lfoot -8.1442 -17.3593
ltoes -22.3828
2348
root -15.8344 18.1058 -6.91518 9.39056 12.5929 -0.438287
lowerback 2.93873 5.61701 1.06287
upperback 3.08938 7.52739 -1.86119
thorax 1.92922 3.81263 -2.5659
lowerneck -4.00318 18.1473 -0.425295
upperneck 33.2353 31.3101 -10.8498
head 14.116 12.8602 0.222613
rclavicle 9.42861e-014 -2.94698e-014
rhumerus -29.9438 -3.71986 -78.3596
rradius 51.5293
rwrist -23.412
rhand -27.8753 10.4464
rfingers 7.12502
rthumb -1.26552 -19.5296
lclavicle 9.42861e-014 -2.94698e-014
lhumerus -45.3358 22.2918 69.4888
lradius 30.7337
lwrist 4.24596
lhand -16.5303 27.1629
lfingers 7.12502
lthumb 9.68854 56.9201
rfemur -27.8048 -1.59662 27.0535
rtibia 38.1013
rfoot -16.2542 -7.00188
rtoes -6.52159
lfemur -24.9521 -10.4244 -12.1491
ltibia 60.3917
lfoot -7.67465 -18.4836
ltoes -22.4827
2349
root -15.8196 18.0997 -7.02032 9.23948 12.4366 -0.563291
lowerback 2.9271 5.67787 1.2186
upperback 3.11808 7.61094 -1.8149
thorax 1.98416 3.85779 -2.59979
lowerneck -4.12267 18.1173 -0.462096
upperneck 33.4159 31.2744 -10.6929
head 14.1771 12.8337 0.293012
rclavicle 2.24627e-014 -3.86263e-014
rhumerus -29.9026 -3.97932 -78.1432
rradius 51.7632
rwrist -23.3805
rhand -27.6951 10.5338
rfingers 7.12502
rthumb -1.09144 -19.4431
lclavicle 2.24627e-014 -3.86263e-014
lhumerus -45.5763 22.8131 69.0766
lradius 30.1746
lwrist 3.82792
lhand -16.4973 26.6732
lfingers 7.12502
lthumb 9.72043 56.4289
rfemur -27.9355 -1.50811 27.012
rtibia 37.9706
rfoot -16.2533 -6.73974
rtoes -5.29984
lfemur -23.7075 -10.1407 -12.1435
ltibia 59.8788
lfoot -6.38358 -19.9334
ltoes -20.1486
2350
root -15.8037 18.0937 -7.12281 9.15684 12.347 -0.487615
lowerback 2.83481 5.67022 1.12586
upperback 3.11053 7.59911 -1.80539
thorax 2.01346 3.84974 -2.53041
lowerneck -3.93961 18.0859 -0.234429
upperneck 33.4071 31.2499 -10.8515
head 14.2129 12.8411 0.19433
rclavicle 3.99712e-014 -1.28465e-014
rhumerus -29.8761 -4.08236 -77.9949
rradius 51.9211
rwrist -23.3721
rhand -27.7172 10.2241
rfingers 7.12502
rthumb -1.11276 -19.7528
lclavicle 3.99712e-014 -1.28465e-014
lhumerus -46.0162 23.0781 68.7821
lradius 29.9489
lwrist 3.62039
lhand -16.357 26.6661
lfingers 7.12502
lthumb 9.85574 56.4154
rfemur -28.066 -1.47329 26.7481
rtibia 37.884
rfoot -16.2579 -6.3251
rtoes -4.09338
lfemur -22.4468 -10.0101 -12.354
ltibia 59.2064
lfoot -5.04875 -21.0725
ltoes -18.9441
2351
root -15.7862 18.0798 -7.2319 9.06453 12.2737 -0.674839
lowerback 2.82139 5.64701 1.30178
upperback 3.02831 7.56882 -1.73571
thorax 1.94767 3.83588 -2.55867
lowerneck -3.79938 18.0868 -0.147064
upperneck 33.4678 31.2483 -10.8478
head 14.2281 12.8543 0.172156
rclavicle 9.30561e-015 -6.02566e-015
rhumerus -29.882 -4.05133 -77.9012
rradius 51.9932
rwrist -23.3081
rhand -27.8947 10.2792
rfingers 7.12502
rthumb -1.28425 -19.6967
lclavicle 9.30561e-015 -6.02566e-015
lhumerus -46.3395 23.0009 68.7953
lradius 29.8005
lwrist 3.89797
lhand -16.4917 27.2685
lfingers 7.12502
lthumb 9.72574 57.0239
rfemur -28.2724 -1.45451 26.8006
rtibia 37.7767
rfoot -16.1347 -6.04491
rtoes -3.87262
lfemur -21.211 -9.83047 -12.2818
ltibia 58.456
lfoot -4.39958 -21.8587
ltoes -19.8673
